<svg width="16" height="16" viewBox="0 0 16 16" fill="none" xmlns="http://www.w3.org/2000/svg">
<g clip-path="url(#clip0_417_936)">
<path d="M4 12L7.09333 4H8.91294L12 12H10.2494L8.02824 5.5745H7.91529L5.66274 12H4Z" fill="white"/>
<path fill-rule="evenodd" clip-rule="evenodd" d="M4.19048 0H11.8095C14.1239 0 16 1.77074 16 3.95506V12.0449C16 14.2293 14.1239 16 11.8095 16H4.19048C1.87614 16 0 14.2293 0 12.0449V3.95506C0 1.77074 1.87614 0 4.19048 0ZM4.19048 1.25843C2.61252 1.25843 1.33333 2.46575 1.33333 3.95506V12.0449C1.33333 13.5343 2.61252 14.7416 4.19048 14.7416H11.8095C13.3875 14.7416 14.6667 13.5343 14.6667 12.0449V3.95506C14.6667 2.46575 13.3875 1.25843 11.8095 1.25843H4.19048Z" fill="white"/>
</g>
<defs>
<clipPath id="clip0_417_936">
<rect width="16" height="16" fill="white"/>
</clipPath>
</defs>
</svg>
