<svg width="18" height="19" viewBox="0 0 18 19" fill="none" xmlns="http://www.w3.org/2000/svg">
<path fill-rule="evenodd" clip-rule="evenodd" d="M4.99998 0.600006H13C15.43 0.600006 17.4 2.56995 17.4 5.00001V14C17.4 16.4301 15.43 18.4 13 18.4H4.99998C2.56992 18.4 0.599976 16.4301 0.599976 14V5.00001C0.599976 2.56995 2.56992 0.600006 4.99998 0.600006ZM4.99998 2.00001C3.34312 2.00001 1.99998 3.34315 1.99998 5.00001V14C1.99998 15.6569 3.34312 17 4.99998 17H13C14.6568 17 16 15.6569 16 14V5.00001C16 3.34315 14.6568 2.00001 13 2.00001H4.99998Z" fill="black"/>
</svg>
