<svg width="16" height="16" viewBox="0 0 16 16" fill="none" xmlns="http://www.w3.org/2000/svg">
<path fill-rule="evenodd" clip-rule="evenodd" d="M10.8571 1.7H5.14286C3.12905 1.7 1.7 3.19648 1.7 4.8V11.2C1.7 12.8035 3.12904 14.3 5.14286 14.3H10.8571C12.871 14.3 14.3 12.8035 14.3 11.2V4.8C14.3 3.19648 12.871 1.7 10.8571 1.7ZM10.8571 0H5.14286C2.30254 0 0 2.14903 0 4.8V11.2C0 13.851 2.30254 16 5.14286 16H10.8571C13.6975 16 16 13.851 16 11.2V4.8C16 2.14903 13.6975 0 10.8571 0Z" fill="black"/>
<path d="M4 12L7.09333 4H8.91294L12 12H10.2494L8.02824 5.5745H7.91529L5.66274 12H4Z" fill="black"/>
<path d="M4 12L7.09333 4H8.91294L12 12H10.2494L8.02824 5.5745H7.91529L5.66274 12H4Z" fill="black" fill-opacity="0.2"/>
</svg>
